# xmcd CD database file
#
# Track frame offsets:
#	150
#	19172
#	34912
#	62545
#	90000
#	122350
#	158592
#	166975
#
# Disc length: 2806 seconds
#
# Revision: 1
# Processed by: cddbd v1.5.2PL0 Copyright (c) Steve Scherf et al.
# Submitted via: CDex 1.51
#
DISCID=4d0af408
DTITLE=Marvin Gaye - Live In Montreux 1980 (Disc-2)
DYEAR=2003
DGENRE=Soul
TTITLE0=Ain't That Peculiar
TTITLE1=I'll Be Doggone
TTITLE2=I Heard It Through The Grapevine
TTITLE3=Trouble Man
TTITLE4=Distant Lover
TTITLE5=Inner City Blues (Make Me Wanna Holler)
TTITLE6=Mercy Mercy Me
TTITLE7=What's Going On
EXTD=YEAR: 2003
EXTT0=
EXTT1=
EXTT2=
EXTT3=
EXTT4=
EXTT5=
EXTT6=
EXTT7=
PLAYORDER=
